<?xml version="1.0" standalone="no"?>
<svg xmlns:xlink="http://www.w3.org/1999/xlink" id="wave" style="transform:rotate(180deg); transition: 0.3s" viewBox="0 0 1440 490" version="1.1" xmlns="http://www.w3.org/2000/svg"><defs><linearGradient id="sw-gradient-0" x1="0" x2="0" y1="1" y2="0"><stop stop-color="rgba(13, 65, 138, 1)" offset="0%"/><stop stop-color="rgba(13, 65, 138, 1)" offset="100%"/></linearGradient></defs><path style="transform:translate(0, 0px); opacity:1" fill="url(#sw-gradient-0)" d="M0,343L80,294C160,245,320,147,480,155.2C640,163,800,278,960,310.3C1120,343,1280,294,1440,277.7C1600,261,1760,278,1920,285.8C2080,294,2240,294,2400,285.8C2560,278,2720,261,2880,285.8C3040,310,3200,376,3360,375.7C3520,376,3680,310,3840,269.5C4000,229,4160,212,4320,187.8C4480,163,4640,131,4800,155.2C4960,180,5120,261,5280,253.2C5440,245,5600,147,5760,155.2C5920,163,6080,278,6240,302.2C6400,327,6560,261,6720,269.5C6880,278,7040,359,7200,367.5C7360,376,7520,310,7680,261.3C7840,212,8000,180,8160,163.3C8320,147,8480,147,8640,147C8800,147,8960,147,9120,138.8C9280,131,9440,114,9600,106.2C9760,98,9920,98,10080,89.8C10240,82,10400,65,10560,73.5C10720,82,10880,114,11040,171.5C11200,229,11360,310,11440,351.2L11520,392L11520,490L11440,490C11360,490,11200,490,11040,490C10880,490,10720,490,10560,490C10400,490,10240,490,10080,490C9920,490,9760,490,9600,490C9440,490,9280,490,9120,490C8960,490,8800,490,8640,490C8480,490,8320,490,8160,490C8000,490,7840,490,7680,490C7520,490,7360,490,7200,490C7040,490,6880,490,6720,490C6560,490,6400,490,6240,490C6080,490,5920,490,5760,490C5600,490,5440,490,5280,490C5120,490,4960,490,4800,490C4640,490,4480,490,4320,490C4160,490,4000,490,3840,490C3680,490,3520,490,3360,490C3200,490,3040,490,2880,490C2720,490,2560,490,2400,490C2240,490,2080,490,1920,490C1760,490,1600,490,1440,490C1280,490,1120,490,960,490C800,490,640,490,480,490C320,490,160,490,80,490L0,490Z"/></svg>